<svg id="Ebene_1" data-name="Ebene 1" xmlns="http://www.w3.org/2000/svg" viewBox="0 0 512 512"><defs><style>.cls-1{fill:#3f88c5;}</style></defs><title>icon_512</title><path class="cls-1" d="M72.58,164c25.07,0,46.27,21.07,46.27,46.27S97.78,256.5,72.58,256.5,26.3,235.43,26.3,210.23,47.51,164,72.58,164Zm0,193.5c25.07,0,46.27,21.07,46.27,46.27S97.78,450,72.58,450,26.3,428.93,26.3,403.73,47.51,357.45,72.58,357.45Z"/><path class="cls-1" d="M180.41,63H358.49c82.77,0,127.81,55.92,127.81,122.71,0,66.24-45.59,121.61-127.81,121.61h-97V443.66h-81V63Zm167.2,69.55H261.4V237.49h86.21c32,0,55.92-20.52,55.92-52.47C403.53,153.62,379.56,132.55,347.61,132.55Z"/></svg>