<?xml version="1.0" encoding="utf-8"?>
<!-- Generator: Adobe Illustrator 21.1.0, SVG Export Plug-In . SVG Version: 6.00 Build 0)  -->
<svg version="1.1" id="Ebene_1" xmlns="http://www.w3.org/2000/svg" xmlns:xlink="http://www.w3.org/1999/xlink" x="0px" y="0px"
	 viewBox="0 0 1000 1000" style="enable-background:new 0 0 1000 1000;" xml:space="preserve">
<style type="text/css">
	.st0{fill:#3F88C5;}
</style>
<g>
	<path d="M204.2,571.1c-13.7,15.3-37.7,30.2-70.4,30.2c-43.9,0-64.6-24-64.6-63V396.2h52.6v121.4c0,27.8,14.5,36.9,36.9,36.9
		c20.3,0,36.5-11.2,45.6-22.8V396.2h52.6v200.1h-52.6V571.1z"/>
	<path class="st0" d="M335.9,393.3c18.2,0,33.6,15.3,33.6,33.6s-15.3,33.6-33.6,33.6s-33.6-15.3-33.6-33.6S317.7,393.3,335.9,393.3z
		 M335.9,533.8c18.2,0,33.6,15.3,33.6,33.6c0,18.2-15.3,33.6-33.6,33.6s-33.6-15.3-33.6-33.6C302.4,549.1,317.7,533.8,335.9,533.8z"
		/>
	<path class="st0" d="M414.2,320h129.3c60.1,0,92.8,40.6,92.8,89.1c0,48.1-33.1,88.3-92.8,88.3h-70.4v99h-58.8V320z M535.6,370.5
		h-62.6v76.2h62.6c23.2,0,40.6-14.9,40.6-38.1C576.2,385.8,558.8,370.5,535.6,370.5z"/>
	<path d="M666.1,335.3c0-17.4,14.5-31.5,31.5-31.5c17.4,0,31.5,14.1,31.5,31.5c0,17.4-14.1,31.5-31.5,31.5
		C680.6,366.8,666.1,352.7,666.1,335.3z M671.5,396.2h52.6v200.1h-52.6V396.2z"/>
	<path d="M869.6,391.2c41,0,65.9,17.8,79.1,36.5l-34.4,31.9c-9.5-13.7-24-21.5-42.3-21.5c-31.9,0-54.3,23.2-54.3,58
		c0,34.8,22.4,58.4,54.3,58.4c18.2,0,32.7-8.3,42.3-21.5l34.4,31.9c-13.3,18.6-38.1,36.5-79.1,36.5c-61.7,0-106.1-43.5-106.1-105.2
		C763.5,434.7,807.8,391.2,869.6,391.2z"/>
</g>
</svg>
